<svg xmlns="http://www.w3.org/2000/svg" viewBox="0 0 48 48"><g data-name="Calque 2"><g data-name="BOOKMARK_FAVOURITE"><path fill="#1d1d1b" d="M40.2 46.2h-2.55L24 37.43 10.35 46.2H7.8V6.66a4.87 4.87 0 0 1 4.86-4.86h22.68a4.87 4.87 0 0 1 4.86 4.86zM24 34.57l13.8 8.88V6.66a2.46 2.46 0 0 0-2.46-2.46H12.66a2.46 2.46 0 0 0-2.46 2.46v36.79z"/><path d="M29.47 28l-5.39-2.84a32.41 32.41 0 0 1-4.91 2.49l-.71.28-1.35-1.28v-.56a34.54 34.54 0 0 1 .78-5.18 14.82 14.82 0 0 1-3.31-3.16l-.24-.34v-.42a4 4 0 0 1 .1-.77l.13-.58.56-.24a30.1 30.1 0 0 1 4.89-1.57 19.15 19.15 0 0 1 2.84-4.64l.35-.35h1.46l.35.35a19.15 19.15 0 0 1 2.84 4.64 30.1 30.1 0 0 1 4.89 1.57l.56.24.13.58a4 4 0 0 1 .1.77v.42l-.24.34a14.82 14.82 0 0 1-3.31 3.16 34.54 34.54 0 0 1 .78 5.18v.56zM17.26 17.12A13.84 13.84 0 0 0 20 19.34l.75.48-.24.86a30.33 30.33 0 0 0-.78 4.09 24.2 24.2 0 0 0 3.63-2l.6-.42 4.39 2.31a27.94 27.94 0 0 0-.76-3.95l-.24-.86.75-.48a13.84 13.84 0 0 0 2.69-2.22A32.64 32.64 0 0 0 26.82 16l-.6-.13-.22-.57a26.15 26.15 0 0 0-2-3.68 26.15 26.15 0 0 0-2 3.68l-.25.57-.6.13a32.64 32.64 0 0 0-3.89 1.12z"/></g><path fill="none" d="M0 0h48v48H0z"/></g></svg>