<?xml version="1.0" encoding="iso-8859-1"?>
<!-- Generator: Adobe Illustrator 19.0.0, SVG Export Plug-In . SVG Version: 6.00 Build 0)  -->
<svg version="1.1" id="Layer_1" xmlns="http://www.w3.org/2000/svg" xmlns:xlink="http://www.w3.org/1999/xlink" x="0px" y="0px"
	 viewBox="0 0 512 512" style="enable-background:new 0 0 512 512;" xml:space="preserve">
<g transform="translate(0 -1)">
	<g>
		<path d="M503.467,244.201h-28.639l-40.393-88.864c-0.017-0.036-0.039-0.067-0.056-0.103c-0.146-0.309-0.309-0.608-0.489-0.895
			c-0.055-0.089-0.107-0.18-0.165-0.266c-0.162-0.239-0.338-0.467-0.523-0.688c-0.152-0.184-0.312-0.357-0.477-0.525
			c-0.025-0.025-0.051-0.049-0.076-0.073c-0.571-0.567-1.204-1.036-1.885-1.404c-0.034-0.019-0.069-0.036-0.104-0.054
			c-0.351-0.184-0.711-0.342-1.082-0.474c-0.144-0.052-0.286-0.107-0.433-0.152c-0.146-0.043-0.293-0.078-0.44-0.113
			c-0.214-0.053-0.431-0.097-0.651-0.133c-0.117-0.019-0.232-0.039-0.35-0.053c-0.341-0.041-0.686-0.069-1.038-0.069H85.333
			c-0.352,0-0.697,0.028-1.038,0.069c-0.117,0.014-0.233,0.035-0.349,0.053c-0.22,0.036-0.437,0.08-0.651,0.133
			c-0.148,0.035-0.294,0.07-0.44,0.113c-0.147,0.045-0.289,0.1-0.433,0.152c-0.37,0.132-0.73,0.29-1.082,0.474
			c-0.035,0.018-0.07,0.035-0.104,0.054c-0.681,0.369-1.314,0.837-1.885,1.404c-0.025,0.025-0.051,0.048-0.076,0.073
			c-0.165,0.168-0.324,0.34-0.477,0.525c-0.185,0.22-0.361,0.449-0.523,0.688c-0.057,0.086-0.11,0.177-0.165,0.266
			c-0.181,0.287-0.343,0.586-0.489,0.895c-0.017,0.036-0.039,0.066-0.056,0.103l-40.393,88.864H8.533
			c-4.713,0-8.533,3.82-8.533,8.533s3.82,8.533,8.533,8.533H76.8v51.198h-8.533c-4.713,0-8.533,3.82-8.533,8.533v34.133
			c0,4.713,3.82,8.533,8.533,8.533H102.4c4.713,0,8.533-3.82,8.533-8.533v-34.133c0-4.713-3.82-8.533-8.533-8.533h-8.533v-51.198
			h324.267v51.198H409.6c-4.713,0-8.533,3.82-8.533,8.533v34.133c0,4.713,3.82,8.533,8.533,8.533h34.133
			c4.713,0,8.533-3.82,8.533-8.533v-34.133c0-4.713-3.82-8.533-8.533-8.533H435.2v-51.198h68.267c4.713,0,8.533-3.82,8.533-8.533
			S508.18,244.201,503.467,244.201z M93.867,346.599H76.8v-17.067h8.5c0.011,0,0.022,0.002,0.034,0.002s0.022-0.002,0.034-0.002h8.5
			V346.599z M435.2,346.599h-17.067v-17.067h8.5c0.011,0,0.022,0.002,0.034,0.002s0.022-0.002,0.034-0.002h8.5V346.599z
			 M397.252,244.201l29.414-64.712l29.414,64.712H397.252z M170.667,179.489l29.414,64.712h-58.829L170.667,179.489z M128,232.112
			l-29.414-64.712h58.829L128,232.112z M183.919,167.401h58.829l-29.414,64.712L183.919,167.401z M256,179.489l29.414,64.712
			h-58.829L256,179.489z M269.252,167.401h58.829l-29.414,64.712L269.252,167.401z M341.333,179.489l29.414,64.712h-58.829
			L341.333,179.489z M354.586,167.401h58.829L384,232.112L354.586,167.401z M85.333,179.489l29.414,64.712H55.919L85.333,179.489z"
			/>
	</g>
</g>
<g>
</g>
<g>
</g>
<g>
</g>
<g>
</g>
<g>
</g>
<g>
</g>
<g>
</g>
<g>
</g>
<g>
</g>
<g>
</g>
<g>
</g>
<g>
</g>
<g>
</g>
<g>
</g>
<g>
</g>
</svg>
