<?xml version="1.0" encoding="iso-8859-1"?>
<!-- Generator: Adobe Illustrator 19.0.0, SVG Export Plug-In . SVG Version: 6.00 Build 0)  -->
<svg version="1.1" id="Layer_1" xmlns="http://www.w3.org/2000/svg" xmlns:xlink="http://www.w3.org/1999/xlink" x="0px" y="0px"
	 viewBox="0 0 475.061 475.061" style="enable-background:new 0 0 475.061 475.061;" xml:space="preserve">
<g>
	<g>
		<path d="M457.111,381.061L457.111,381.061c-3.3-2.5-8-1.9-10.5,1.3c-54.4,70.3-139.3,95.8-216.4,65.2
			c-60-23.9-105.4-78.6-123.4-144.7h222.3c4.1,0,7.5-3.4,7.5-7.5s-3.4-7.5-7.5-7.5h-225.9c-3-14.5-4.7-29.5-4.9-44.7
			c-0.3-12.3,0.3-24.6,1.9-36.6h263.9c4.1,0,7.5-3.4,7.5-7.5s-3.4-7.5-7.5-7.5h-261.6c13.4-70.4,57.1-131.3,118-159.6
			c74.8-34.8,162.6-14,218.5,51.6c2.7,3.2,7.4,3.5,10.6,0.8s3.5-7.4,0.8-10.6c-29.6-34.8-67.7-58.5-110.1-68.5
			c-42.6-10.1-86.2-5.6-126.2,13c-39.9,18.6-73.4,49.8-96.9,90.3c-14.8,25.6-25,53.6-30.1,82.9h-63.8c-4.1,0-7.5,3.4-7.5,7.5
			s3.4,7.5,7.5,7.5h61.7c-1.4,12.2-2,24.5-1.7,36.9c0.2,15,1.8,29.9,4.5,44.4h-65.3c-4.1,0-7.5,3.4-7.5,7.5s3.4,7.5,7.5,7.5h68.7
			c6.7,26.4,17.5,51.4,32.3,74c25.4,39.1,60.4,68.3,101.2,84.6c23,9.1,46.9,13.7,70.9,13.7c18.6,0,37.3-2.8,55.6-8.3
			c41.8-12.6,78.9-38.6,107.3-75.4C461.011,388.261,460.411,383.561,457.111,381.061z"/>
	</g>
</g>
<g>
</g>
<g>
</g>
<g>
</g>
<g>
</g>
<g>
</g>
<g>
</g>
<g>
</g>
<g>
</g>
<g>
</g>
<g>
</g>
<g>
</g>
<g>
</g>
<g>
</g>
<g>
</g>
<g>
</g>
</svg>
