<?xml version="1.0" encoding="iso-8859-1"?>
<!-- Generator: Adobe Illustrator 19.0.0, SVG Export Plug-In . SVG Version: 6.00 Build 0)  -->
<svg version="1.1" id="Layer_1" xmlns="http://www.w3.org/2000/svg" xmlns:xlink="http://www.w3.org/1999/xlink" x="0px" y="0px"
	 viewBox="0 0 488 488" style="enable-background:new 0 0 488 488;" xml:space="preserve">
<g transform="translate(0 -540.36)">
	<g>
		<g>
			<path d="M10,589.56h468c5.5,0,10-4.5,10-10s-4.5-10-10-10H10c-5.5,0-10,4.5-10,10S4.5,589.56,10,589.56z"/>
			<path d="M244,856.458c-5.5,0-10,4.5-10,10v40.6c0,5.5,4.5,10,10,10s10-4.5,10-10v-40.6C254,860.958,249.5,856.458,244,856.458z"
				/>
			<path d="M244,927.758c-5.5,0-10,4.5-10,10v50.6c0,5.5,4.5,10,10,10s10-4.5,10-10v-50.6C254,932.258,249.5,927.758,244,927.758z"
				/>
			<path d="M244,795.058c-5.5,0-10,4.5-10,10v29.9c0,5.5,4.5,10,10,10s10-4.5,10-10v-29.9C254,799.558,249.5,795.058,244,795.058z"
				/>
			<path d="M478,640.96c5.5,0,10-4.5,10-10s-4.5-10-10-10H10c-5.5,0-10,4.5-10,10s4.5,10,10,10h61.1v102.7H10c-5.5,0-10,4.5-10,10
				s4.5,10,10,10h179.7L72.3,984.46c-2.6,4.9-0.7,10.9,4.1,13.5c1.5,0.8,3.1,1.2,4.7,1.2c3.6,0,7-1.9,8.8-5.3l122.4-230.1
				c0,0,0,0,0-0.1H234v9.9c0,5.5,4.5,10,10,10s10-4.5,10-10v-9.9h21.7c0,0,0,0,0,0.1l122.4,230.1c1.8,3.4,5.3,5.3,8.8,5.3
				c1.6,0,3.2-0.4,4.7-1.2c4.9-2.6,6.7-8.6,4.1-13.5l-117.4-220.7H478c5.5,0,10-4.5,10-10s-4.5-10.1-10-10.1h-50.4v-102.7H478z
				 M121.6,743.66H91.1v-102.7h30.5V743.66z M356.4,743.66H141.6v-102.7h214.8V743.66z M407.6,743.66h-31.2v-102.7h31.2V743.66z"/>
		</g>
	</g>
</g>
<g>
</g>
<g>
</g>
<g>
</g>
<g>
</g>
<g>
</g>
<g>
</g>
<g>
</g>
<g>
</g>
<g>
</g>
<g>
</g>
<g>
</g>
<g>
</g>
<g>
</g>
<g>
</g>
<g>
</g>
</svg>
