<?xml version="1.0" encoding="iso-8859-1"?>
<!-- Generator: Adobe Illustrator 16.0.0, SVG Export Plug-In . SVG Version: 6.00 Build 0)  -->
<!DOCTYPE svg PUBLIC "-//W3C//DTD SVG 1.1//EN" "http://www.w3.org/Graphics/SVG/1.1/DTD/svg11.dtd">
<svg version="1.1" id="Capa_1" xmlns="http://www.w3.org/2000/svg" xmlns:xlink="http://www.w3.org/1999/xlink" x="0px" y="0px"
	 width="480.369px" height="480.369px" viewBox="0 0 480.369 480.369" style="enable-background:new 0 0 480.369 480.369;"
	 xml:space="preserve">
<g>
	<g>
		<path d="M240.185,0.016c-7.543,0-13.66,6.117-13.66,13.66v13.66c0,7.543,6.116,13.659,13.66,13.659
			c7.542,0,13.66-6.115,13.66-13.659v-13.66C253.845,6.133,247.728,0.016,240.185,0.016z"/>
		<path d="M240.185,348.663c-7.543,0-13.66,6.117-13.66,13.66v27.912c0,7.543,6.116,13.66,13.66,13.66
			c7.542,0,13.66-6.117,13.66-13.66v-27.912C253.845,354.78,247.728,348.663,240.185,348.663z"/>
		<path d="M240.185,257.937c-7.543,0-13.66,6.117-13.66,13.66v27.912c0,7.543,6.116,13.658,13.66,13.658
			c7.542,0,13.66-6.115,13.66-13.658v-27.912C253.845,264.054,247.728,257.937,240.185,257.937z"/>
		<path d="M240.185,76.482c-7.543,0-13.66,6.116-13.66,13.66v27.919c0,7.543,6.116,13.659,13.66,13.659
			c7.542,0,13.66-6.116,13.66-13.659V90.143C253.845,82.6,247.728,76.482,240.185,76.482z"/>
		<path d="M240.185,167.209c-7.543,0-13.66,6.116-13.66,13.66v27.913c0,7.543,6.116,13.659,13.66,13.659
			c7.542,0,13.66-6.116,13.66-13.659V180.87C253.845,173.326,247.728,167.209,240.185,167.209z"/>
		<path d="M240.185,439.39c-7.543,0-13.66,6.117-13.66,13.66v13.66c0,7.543,6.116,13.658,13.66,13.658
			c7.542,0,13.66-6.115,13.66-13.658v-13.66C253.845,445.507,247.728,439.39,240.185,439.39z"/>
		<path d="M404.563,464.976L346.491,11.941c-0.96-7.484-7.75-12.806-15.287-11.812c-7.481,0.954-12.771,7.804-11.811,15.28
			l58.071,453.035c0.888,6.896,6.763,11.925,13.532,11.925c0.58,0,1.168-0.033,1.755-0.113
			C400.235,479.302,405.524,472.452,404.563,464.976z"/>
		<path d="M149.165,0.129c-7.497-1.041-14.327,4.321-15.287,11.812L75.806,464.976c-0.961,7.477,4.328,14.326,11.812,15.279
			c0.587,0.08,1.174,0.113,1.754,0.113c6.77,0,12.646-5.027,13.533-11.925l58.072-453.035
			C161.937,7.934,156.648,1.083,149.165,0.129z"/>
	</g>
</g>
<g>
</g>
<g>
</g>
<g>
</g>
<g>
</g>
<g>
</g>
<g>
</g>
<g>
</g>
<g>
</g>
<g>
</g>
<g>
</g>
<g>
</g>
<g>
</g>
<g>
</g>
<g>
</g>
<g>
</g>
</svg>
