<svg width="24" height="24" viewBox="0 0 24 24" fill="none" xmlns="http://www.w3.org/2000/svg">
<g clip-path="url(#clip0_329_50375)">
<path d="M24 13.7027H19.4278C20.2652 11.1332 21.0997 8.57076 21.936 6.00421C21.9149 6.00186 21.9031 6.00009 21.892 6.00009C21.0474 6.00009 20.2028 5.99951 19.3583 6.00127C19.3307 6.00127 19.2995 6.01539 19.2766 6.03187C19.1836 6.10014 19.0934 6.17195 19.0022 6.24257C17.3491 7.52084 15.6954 8.79969 14.0422 10.078C12.4944 11.2745 10.9471 12.4709 9.39872 13.6662C9.36989 13.6885 9.32752 13.7039 9.29161 13.7039C8.02099 13.7051 6.75096 13.7051 5.48033 13.7051C5.46032 13.7051 5.44031 13.7027 5.41442 13.7009C5.77636 12.5904 6.13536 11.4869 6.50083 10.3651C4.32389 12.0478 2.16164 13.7191 0 15.39L7.14292 15.4076C7.11349 15.4324 7.09937 15.4441 7.08523 15.4553C5.98588 16.3051 4.88651 17.155 3.78774 18.0054C3.76067 18.0265 3.73889 18.0536 3.71477 18.0784H6.94752C7.02462 18.0148 7.09996 17.9489 7.17881 17.8877C8.23109 17.0743 9.28337 16.261 10.3374 15.4494C10.371 15.4235 10.4215 15.4064 10.4646 15.4064C12.3666 15.4042 14.2693 15.4048 16.1714 15.4048H16.258C15.9661 16.3033 15.6776 17.1908 15.3893 18.0784L18 18.079C18.0047 18.066 18.0106 18.053 18.0148 18.0395C18.2914 17.1874 18.5692 16.3345 18.8428 15.4812C18.8628 15.4188 18.8904 15.4048 18.951 15.4048C19.8803 15.4064 20.8096 15.4064 21.7388 15.4048C21.7783 15.4048 21.8248 15.3929 21.8549 15.37C22.5552 14.8303 23.3014 14.2441 24 13.7027ZM24 13.7027C23.9771 13.725 24.013 13.6926 24 13.7027ZM12.6174 13.7045C14.4847 12.2603 16.3475 10.8018 18.2318 9.34467C18.1712 9.53183 18.1177 9.699 18.0636 9.86556C17.6563 11.1167 17.249 12.3679 16.8436 13.6202C16.8229 13.6832 16.7976 13.7063 16.7282 13.7063C15.3834 13.7039 13.9628 13.7045 12.6174 13.7045Z" stroke="black" stroke-miterlimit="10"/>
</g>
<defs>
<clipPath id="clip0_329_50375">
<rect width="24" height="24" fill="white"/>
</clipPath>
</defs>
</svg>
