<svg xmlns="http://www.w3.org/2000/svg" viewBox="0 0 48 48"><g data-name="Calque 2"><g data-name="MAP_LOCATION"><path d="M24.08 19.77a4 4 0 1 1 4-4 4 4 0 0 1-4 4zm0-5.62a1.61 1.61 0 1 0 1.62 1.61 1.61 1.61 0 0 0-1.62-1.61z"/><path d="M25.13 29.62H23l-.36-.45c-4.6-5.74-6.83-10.13-6.83-13.41a8.24 8.24 0 0 1 16.47 0c0 3.28-2.24 7.67-6.83 13.41zM24.08 9.93a5.84 5.84 0 0 0-5.83 5.83c0 1.78 1 5.18 5.83 11.32 4.81-6.14 5.84-9.54 5.84-11.32a5.84 5.84 0 0 0-5.84-5.83z"/><path d="M45.28 39.98H2.88v-2.26l10.63-13.14h3.57v2.4h-2.42l-8.58 10.6H42.1l-8.59-10.6h-2.43v-2.4h3.58l10.62 13.11v2.29z"/></g><path fill="none" d="M0 0h48v48H0z"/></g></svg>