<?xml version="1.0" encoding="iso-8859-1"?>
<!-- Generator: Adobe Illustrator 19.0.0, SVG Export Plug-In . SVG Version: 6.00 Build 0)  -->
<svg version="1.1" id="Layer_1" xmlns="http://www.w3.org/2000/svg" xmlns:xlink="http://www.w3.org/1999/xlink" x="0px" y="0px"
	 viewBox="0 0 475 475" style="enable-background:new 0 0 475 475;" xml:space="preserve">
<g transform="translate(0 -540.36)">
	<g>
		<g>
			<path d="M180.5,762.81c-39.2,0-71.1,32.1-71.1,71.5s31.9,71.5,71.1,71.5c39.6,0,71.9-32.1,71.9-71.5S220.1,762.81,180.5,762.81z
				 M180.5,890.81c-31,0-56.1-25.3-56.1-56.5s25.2-56.5,56.1-56.5c31.4,0,56.9,25.3,56.9,56.5S211.9,890.81,180.5,890.81z"/>
			<path d="M201.3,844.51c-1.4-9.9-9.8-17.3-19.8-17.3h-0.8c-2.6,0-4.9-2.2-5.8-5.6c-0.3-3.6,1.1-6.7,3.3-7.7
				c0.1-0.1,0.3-0.1,0.4-0.2c2.7-1.4,5.3-0.2,6.3,1.7c2,3.6,6.6,4.9,10.2,2.9c3.6-2,4.9-6.6,2.9-10.2c-2.3-4-5.8-7-9.8-8.6v-9.9
				c0-4.1-3.4-7.5-7.5-7.5c-4.1,0-7.5,3.4-7.5,7.5v10.1c-0.4,0.2-0.9,0.4-1.3,0.6c-8.3,3.7-13.1,13.1-12,23.4c0,0.3,0.1,0.5,0.1,0.8
				c2.3,10.5,10.7,17.8,20.5,17.8h0.8c2.5,0,4.7,2,5,4.5c0,0.2,0.1,0.5,0.1,0.7c0.8,3.6-0.5,6.5-3.6,8.2c-1.8,0.7-4.6-0.2-5.8-2.4
				c-2-3.6-6.6-4.9-10.2-2.9s-4.9,6.6-2.9,10.2c2.2,3.9,5.5,6.8,9.3,8.5v10c0,4.1,3.4,7.5,7.5,7.5c4.1,0,7.5-3.4,7.5-7.5v-9.4
				c0.3-0.1,0.5-0.2,0.8-0.3c0.1-0.1,0.3-0.1,0.4-0.2C198.8,864.41,203.4,854.71,201.3,844.51L201.3,844.51z"/>
			<path d="M410.8,681.81H67.2c-4.1,0-7.5,3.4-7.5,7.5s3.4,7.5,7.5,7.5h336.2v169.5c0,4.1,3.4,7.5,7.5,7.5v0c4.1,0,7.5-3.3,7.4-7.4
				v-177.1C418.3,685.21,414.9,681.81,410.8,681.81z"/>
			<path d="M354.2,737.11H7.5c-4.1,0-7.5,3.4-7.5,7.5v179.5c0,4.1,3.4,7.5,7.5,7.5h346.7c4.1,0,7.5-3.4,7.5-7.5v-179.5
				C361.7,740.51,358.4,737.11,354.2,737.11z M346.7,752.11v34.2l-33.6-34.2H346.7z M15,752.11h33l-33,34.1V752.11z M15,916.61
				v-34.1l33,34.1H15z M346.8,916.61h-33.6l33.6-34.2V916.61z M346.8,860.91l-54.6,55.6H68.9L15,860.91v-53.2l53.9-55.6h223.3
				l54.6,55.6V860.91z"/>
			<path d="M467.5,624.11H123.9c-4.1,0-7.5,3.4-7.5,7.5s3.4,7.5,7.5,7.5H460v168.7c0,4.1,3.4,7.5,7.5,7.5c4.1,0,7.5-3.3,7.5-7.5
				v-176.2C475,627.51,471.6,624.11,467.5,624.11z"/>
		</g>
	</g>
</g>
<g>
</g>
<g>
</g>
<g>
</g>
<g>
</g>
<g>
</g>
<g>
</g>
<g>
</g>
<g>
</g>
<g>
</g>
<g>
</g>
<g>
</g>
<g>
</g>
<g>
</g>
<g>
</g>
<g>
</g>
</svg>
