<svg xmlns="http://www.w3.org/2000/svg" viewBox="0 0 48 48"><g data-name="Calque 2"><g fill="#1e1e1c" data-name="PERFUME"><path d="M24.9 13.2h-1.62l-.36-.44c-.46-.57-2.77-3.5-2.81-5.4A3.22 3.22 0 0 1 21.05 5a4.24 4.24 0 0 1 3-1.2c2.15 0 4 1.54 4 3.37 0 2-2.34 5-2.81 5.58zm-.81-7a1.88 1.88 0 0 0-1.33.48.79.79 0 0 0-.25.63 8.28 8.28 0 0 0 1.57 3 8.55 8.55 0 0 0 1.59-3.15c0-.38-.67-.96-1.58-.96zM16.38 19a3.28 3.28 0 0 1-2.3-.94 4.27 4.27 0 0 1-1.19-3c0-2.16 1.54-4 3.36-4 2 0 5 2.34 5.59 2.81l.45.36v1.62l-.44.36c-.56.46-3.49 2.77-5.4 2.81zm-.13-5.56c-.39 0-1 .66-1 1.58a1.85 1.85 0 0 0 .47 1.32.83.83 0 0 0 .62.26 8.61 8.61 0 0 0 3-1.57 8.35 8.35 0 0 0-3.09-1.61zM24.09 26.2c-2.16 0-4-1.54-4-3.37s2.34-5 2.81-5.58l.36-.45h1.61l.36.44c.46.57 2.78 3.5 2.82 5.4a3.27 3.27 0 0 1-.93 2.36 4.24 4.24 0 0 1-3.03 1.2zm0-6.52a8.49 8.49 0 0 0-1.58 3.15c0 .39.66 1 1.58 1a1.87 1.87 0 0 0 1.32-.48.85.85 0 0 0 .26-.63 8.35 8.35 0 0 0-1.58-3.04zM31.92 19c-2 0-5-2.34-5.59-2.81l-.45-.36v-1.64l.44-.36c.57-.46 3.5-2.77 5.4-2.81a3.25 3.25 0 0 1 2.36.94 4.26 4.26 0 0 1 1.2 3c.01 2.2-1.54 4.04-3.36 4.04zm-3.15-4a8.26 8.26 0 0 0 3.15 1.59c.39 0 1-.66 1-1.58a1.85 1.85 0 0 0-.48-1.32.75.75 0 0 0-.63-.26A8.45 8.45 0 0 0 28.77 15zM25 44.2h-1.65l-.28-1a27.08 27.08 0 0 1-.47-4.2 19.88 19.88 0 0 1 .22-3.44 7.3 7.3 0 0 1 1.94-3.66c.23-.27.48-.52.73-.77a29.31 29.31 0 0 1 3.84-2.95l.78-.54a35.1 35.1 0 0 0 6.13-5 29.74 29.74 0 0 0 2.83-5.22l.32-.72h1.88l.2 1c.24 1.14 1.39 6.94.44 9.08a14.1 14.1 0 0 1-4 5.07 21 21 0 0 1-2.55 1.71l-1.1.68a24.22 24.22 0 0 0-5.56 4.39 32.26 32.26 0 0 0-3.09 4.64zm14.69-22.62A14.72 14.72 0 0 1 38 24.21a36.87 36.87 0 0 1-6.54 5.36l-.8.55a26.82 26.82 0 0 0-3.52 2.7c-.21.2-.41.41-.6.62a5.08 5.08 0 0 0-1.36 2.43 16.11 16.11 0 0 0-.2 3v.64A24.06 24.06 0 0 1 26.86 37 26.45 26.45 0 0 1 33 32.14l1.16-.71a19.93 19.93 0 0 0 2.27-1.52 11.46 11.46 0 0 0 3.32-4.19 11 11 0 0 0-.06-4.14zM19.56 37.34H17.8l-.52-.93a25.86 25.86 0 0 0-2.45-3.68 19.42 19.42 0 0 0-4.41-3.48l-.86-.53a18.83 18.83 0 0 1-2.08-1.39 11.5 11.5 0 0 1-3.27-4.16c-.77-1.73.06-6.12.33-7.42l.21-.95H6.6l.32.71a23.58 23.58 0 0 0 2.23 4.12 27.54 27.54 0 0 0 4.87 4l.62.43a22.15 22.15 0 0 1 3.1 2.39c.21.2.41.4.6.62A6.12 6.12 0 0 1 20 30.11a16.16 16.16 0 0 1 .17 2.8 22.07 22.07 0 0 1-.38 3.46zM6.36 19.76a6.92 6.92 0 0 0 0 2.44A8.94 8.94 0 0 0 9 25.46a16.59 16.59 0 0 0 1.8 1.21c.31.18.62.37.92.57a21.14 21.14 0 0 1 4.94 3.94c.39.46.74.93 1.08 1.42a12.64 12.64 0 0 0-.16-2.14 3.89 3.89 0 0 0-1-1.82 7 7 0 0 0-.46-.48A21.64 21.64 0 0 0 13.29 26l-.64-.44a29.68 29.68 0 0 1-5.28-4.34 8.18 8.18 0 0 1-1.01-1.46z"/></g><path fill="none" d="M0 0h48v48H0z"/></g></svg>