<svg xmlns="http://www.w3.org/2000/svg" viewBox="0 0 48 48"><g data-name="Calque 2"><g data-name="ROUTE"><path d="M45.88 29.2a2.44 2.44 0 1 1-2.44-2.45 2.43 2.43 0 0 1 2.44 2.45z"/><path fill="#1d1d1b" d="M8.78 31.22l-1.84-.35c-.09-.16-2.07-3.95-2.69-5.32S2 19.93 1.88 19.75l1.19-1.64c.21 0 5.36.3 7.1.55s6.69 1.15 6.9 1.18l.71 1.94c-.13.16-3.19 3.93-4.23 5.08s-4.62 4.24-4.77 4.36zm-4-10.6c.55 1.36 1.27 3.15 1.63 3.94s1.28 2.6 1.92 3.85c1.21-1.06 2.81-2.49 3.4-3.16s1.88-2.2 2.87-3.41c-1.61-.28-3.77-.66-4.8-.81s-3.31-.3-4.99-.41z"/><path d="M43 21l-24.51 9.62a2.6 2.6 0 0 0 2 4.79l18-7.08.88 2.24-18 7.08a5.06 5.06 0 0 1-1.82.34 5 5 0 0 1-2-9.56l1-.41 23.58-9.25a2.63 2.63 0 0 0 1.43-1.39 2.59 2.59 0 0 0 0-2 2.61 2.61 0 0 0-3.38-1.47l-17.8 7-.88-2.23 17.81-7a5 5 0 0 1 6.49 2.83A5 5 0 0 1 43 21z"/><path fill="#1d1d1b" d="M18.57 28l-1 .41.22-.1.81-.32z"/></g><path fill="none" d="M0 0h48v48H0z"/></g></svg>