<svg xmlns="http://www.w3.org/2000/svg" viewBox="0 0 48 48"><g data-name="Calque 2"><path fill="#1d1d1b" d="M24.17 30.33l15.16.06h1.42a4.29 4.29 0 0 1 .7.08 3.44 3.44 0 0 1 2.3 1.62 3.49 3.49 0 0 1 .35 2.79 3.74 3.74 0 0 1-.26.63l-.21.42-.43.85-3.75 7.42H13.27a3.49 3.49 0 0 1-1.2-.15A2.8 2.8 0 0 1 10.25 42L10 40.41l-.6-3.22-1.2-6.46-2.45-12.91-1.2-6.46L4 8.13l-.16-.85a3.9 3.9 0 0 1 0-1.18 2.81 2.81 0 0 1 .53-1.28 2.48 2.48 0 0 1 1.23-.88 2.66 2.66 0 0 1 .65-.12h3.02a7.88 7.88 0 0 1 1.9.25 6.37 6.37 0 0 1 1.83.77 5.86 5.86 0 0 1 1.49 1.45c.1.15.19.31.28.47l.2.38.37.74 1.49 2.93 3 5.88 1.44 3c.48 1 .94 1.94 1.4 3.14a11.15 11.15 0 0 1 .45 3.64 15.15 15.15 0 0 1-.5 3.53c-.38 1.21-.79 2.16-1.2 3.21l-1.27 3-2.48-.21c.84-2 1.72-4.06 2.45-6.05a10 10 0 0 0 .53-2.95 11 11 0 0 0-.18-3 15.78 15.78 0 0 0-1.16-2.8l-1.43-3-2.95-5.9-1.49-2.88L12.69 8a2.88 2.88 0 0 0-.69-.95 3.88 3.88 0 0 0-1.08-.63 3.82 3.82 0 0 0-1.32-.26 21.44 21.44 0 0 0-3.1 0h-.24c-.04 0 0 0 0 .08a1 1 0 0 0-.06.36 3.06 3.06 0 0 0 .08.6l.61 3.25L8 17l2.42 13 1.21 6.5.6 3.25.31 1.63V41.6l.05.09a.41.41 0 0 0 .14.12h25.18l3.17-6.27a12.27 12.27 0 0 0 .69-1.46 1.12 1.12 0 0 0-.21-.86 1.07 1.07 0 0 0-.78-.42H39l-15.51-.06z"/><path fill="none" d="M0 0h48v48H0z"/></g></svg>