<svg xmlns="http://www.w3.org/2000/svg" viewBox="0 0 48 48"><g data-name="Calque 2"><g data-name="FILTER_2"><path d="M10.2 22V4H7.8v18a5.19 5.19 0 0 0 0 10.1V44h2.4V32a5.19 5.19 0 0 0 0-10.1zM9 29.8a2.8 2.8 0 1 1 2.8-2.8A2.81 2.81 0 0 1 9 29.8zM24.7 10V4h-2.4v6a5.19 5.19 0 0 0 0 10.1V44h2.4V20.05a5.19 5.19 0 0 0 0-10.1zm-1.2 7.8a2.8 2.8 0 1 1 2.8-2.8 2.81 2.81 0 0 1-2.8 2.8zM40.2 29V4h-2.4v25a5.19 5.19 0 0 0 0 10.1v5h2.4v-5a5.19 5.19 0 0 0 0-10.1zM39 36.8a2.8 2.8 0 1 1 2.8-2.8 2.81 2.81 0 0 1-2.8 2.8z"/></g><path fill="none" d="M0 0h48v48H0z"/></g></svg>