<?xml version="1.0" encoding="UTF-8"?>
<svg xmlns="http://www.w3.org/2000/svg" viewBox="0 0 48 48"><g data-name="Calque 2"><g data-name="SPEECH _FORUM"><path d="M11.43 29.61h-2l-1.31-3.4H5.29c-2 0-3.48-1.19-3.48-2.7V10.49C1.8 9 3.32 7.8 5.27 7.8h23.46c1.95 0 3.47 1.18 3.47 2.69v13.06c0 1.51-1.52 2.7-3.47 2.7H15.6zM9.75 23.8L11 26.9l3.8-3.1h14a1.4 1.4 0 0 0 1.08-.36v-13a2 2 0 0 0-1.07-.29H5.27a1.44 1.44 0 0 0-1.08.36v13a1.87 1.87 0 0 0 1.07.29z" data-name="Bubble Empty" style="fill: rgba(12,29,44,0.8);"/><path d="M38.59 40.2h-2l-4.17-3.5H19.3c-1.95 0-3.47-1.21-3.47-2.74V28h2.4v6a1.54 1.54 0 0 0 1.07.33h14l3.79 3.18 1.19-3.18h4.5a1.31 1.31 0 0 0 1.03-.33V20.54a1.52 1.52 0 0 0-1.07-.34H34v-2.4h8.73c2 0 3.47 1.2 3.47 2.74V34c0 1.53-1.52 2.74-3.47 2.74H39.9z" data-name="Bubble Empty" style="fill: rgba(12,29,44,0.8);"/></g><path fill="none" d="M0 0h48v48H0z"/></g></svg>
