<svg xmlns="http://www.w3.org/2000/svg" viewBox="0 0 48 48"><g data-name="Calque 2"><g fill="#1e1e1c" data-name="WEATHER_WINDY"><path d="M38.55 25.2H2.05v-2.4h36.5a2.62 2.62 0 0 0 2.3-2.8 2.62 2.62 0 0 0-2.3-2.8h-2.5v-2.4h2.5a5 5 0 0 1 4.7 5.2 5 5 0 0 1-4.7 5.2z"/><path d="M27.55 18.2H7.05v-2.4h20.5a2.62 2.62 0 0 0 2.3-2.8 2.62 2.62 0 0 0-2.3-2.8h-2.5V7.8h2.5a5 5 0 0 1 4.7 5.2 5 5 0 0 1-4.7 5.2zM30.55 40.2h-2.5v-2.4h2.5a2.62 2.62 0 0 0 2.3-2.8 2.62 2.62 0 0 0-2.3-2.8h-20.5v-2.4h20.5a5 5 0 0 1 4.7 5.2 5 5 0 0 1-4.7 5.2z"/></g><path fill="none" d="M0 0h48v48H0z"/></g></svg>