<?xml version="1.0" encoding="iso-8859-1"?>
<!-- Generator: Adobe Illustrator 19.0.0, SVG Export Plug-In . SVG Version: 6.00 Build 0)  -->
<svg version="1.1" id="Layer_1" xmlns="http://www.w3.org/2000/svg" xmlns:xlink="http://www.w3.org/1999/xlink" x="0px" y="0px"
	 viewBox="0 0 512 512" style="enable-background:new 0 0 512 512;" xml:space="preserve">
<g>
	<g>
		<rect x="188.082" width="135.837" height="20.898"/>
	</g>
</g>
<g>
	<g>
		<path d="M376.163,146.286v-20.898h-20.898V52.152c0-5.77-5.89-10.356-11.661-10.356H165.972c-5.77,0-9.237,4.586-9.237,10.356
			v73.236h-20.898v20.898h20.898v114.939h-20.898v20.898h20.898v114.939h-20.898v20.898h20.898v83.499
			c0,5.77,3.467,10.542,9.237,10.542h177.633c5.77,0,11.661-4.772,11.661-10.542v-83.499h20.898v-20.898h-20.898V282.122h20.898
			v-20.898h-20.898V146.286H376.163z M334.367,491.102H177.633V62.694h156.735V491.102z"/>
	</g>
</g>
<g>
	<g>
		<path d="M254.788,83.499c-31.689,0-57.469,25.781-57.469,57.469c0,31.689,25.781,57.469,57.469,57.469
			c31.689,0,57.469-25.781,57.469-57.469C312.258,109.279,286.477,83.499,254.788,83.499z M254.788,177.54
			c-20.163,0-36.571-16.408-36.571-36.571c0-20.163,16.408-36.571,36.571-36.571c20.163,0,36.571,16.408,36.571,36.571
			C291.36,161.131,274.952,177.54,254.788,177.54z"/>
	</g>
</g>
<g>
	<g>
		<path d="M254.788,219.336c-31.689,0-57.469,25.781-57.469,57.469c0,31.689,25.781,57.469,57.469,57.469
			c31.689,0,57.469-25.781,57.469-57.469C312.258,245.116,286.477,219.336,254.788,219.336z M254.788,313.376
			c-20.163,0-36.571-16.408-36.571-36.571c0-20.163,16.408-36.571,36.571-36.571c20.163,0,36.571,16.408,36.571,36.571
			C291.36,296.968,274.952,313.376,254.788,313.376z"/>
	</g>
</g>
<g>
	<g>
		<path d="M254.788,355.172c-31.689,0-57.469,25.781-57.469,57.469c0,31.689,25.781,57.469,57.469,57.469
			c31.689,0,57.469-25.781,57.469-57.469C312.258,380.953,286.477,355.172,254.788,355.172z M254.788,449.213
			c-20.163,0-36.571-16.408-36.571-36.571c0-20.163,16.408-36.571,36.571-36.571c20.163,0,36.571,16.408,36.571,36.571
			C291.36,432.805,274.952,449.213,254.788,449.213z"/>
	</g>
</g>
<g>
</g>
<g>
</g>
<g>
</g>
<g>
</g>
<g>
</g>
<g>
</g>
<g>
</g>
<g>
</g>
<g>
</g>
<g>
</g>
<g>
</g>
<g>
</g>
<g>
</g>
<g>
</g>
<g>
</g>
</svg>
