<?xml version="1.0" encoding="iso-8859-1"?>
<!-- Generator: Adobe Illustrator 16.0.0, SVG Export Plug-In . SVG Version: 6.00 Build 0)  -->
<!DOCTYPE svg PUBLIC "-//W3C//DTD SVG 1.1//EN" "http://www.w3.org/Graphics/SVG/1.1/DTD/svg11.dtd">
<svg version="1.1" id="Capa_1" xmlns="http://www.w3.org/2000/svg" xmlns:xlink="http://www.w3.org/1999/xlink" x="0px" y="0px"
	 width="466.672px" height="466.673px" viewBox="0 0 466.672 466.673" style="enable-background:new 0 0 466.672 466.673;"
	 xml:space="preserve">
<g>
	<g>
		<path d="M317.551,292.664l58.006,165.64c1.756,5.014,6.486,8.369,11.797,8.369h45.635c6.902,0,12.5-5.596,12.5-12.5v-242.02
			C445.489,95.172,350.317,0,233.336,0C116.354,0,21.184,95.171,21.184,212.153v242.02c0,6.904,5.597,12.5,12.5,12.5h45.633
			c5.311,0,10.042-3.355,11.798-8.369l58.009-165.647c1.089-1.854,1.713-4.014,1.713-6.32v-54c0-41.016,30.197-75.485,70-81.535
			v48.197c0,6.903,5.597,12.5,12.5,12.5c6.904,0,12.5-5.597,12.5-12.5V150.8c39.801,6.048,70,40.519,70,81.535v54
			C315.834,288.645,316.461,290.809,317.551,292.664z M239.985,125.046c-0.253-0.016-0.507-0.023-0.762-0.023h-11.777
			c-0.255,0-0.51,0.008-0.764,0.023c-56.549,3.46-100.847,50.588-100.847,107.29v51.177L70.448,441.672H46.183v-229.52
			C46.183,108.956,130.139,25,233.335,25c103.197,0,187.152,83.957,187.152,187.153v229.52h-24.266l-55.387-158.165v-51.172
			C340.834,175.633,296.536,128.505,239.985,125.046z"/>
		<path d="M245.834,261.122c0-6.903-5.597-12.5-12.5-12.5s-12.5,5.597-12.5,12.5v75.928c0,6.904,5.597,12.5,12.5,12.5
			s12.5-5.596,12.5-12.5V261.122z"/>
		<path d="M233.335,386.672c-6.903,0-12.5,5.597-12.5,12.5v55c0,6.903,5.597,12.5,12.5,12.5s12.5-5.597,12.5-12.5v-55
			C245.834,392.269,240.238,386.672,233.335,386.672z"/>
	</g>
</g>
<g>
</g>
<g>
</g>
<g>
</g>
<g>
</g>
<g>
</g>
<g>
</g>
<g>
</g>
<g>
</g>
<g>
</g>
<g>
</g>
<g>
</g>
<g>
</g>
<g>
</g>
<g>
</g>
<g>
</g>
</svg>
